<?xml version="1.0" encoding="UTF-8" standalone="no"?>
<!-- Created with Inkscape (http://www.inkscape.org/) -->

<svg
   xmlns:dc="http://purl.org/dc/elements/1.1/"
   xmlns:cc="http://creativecommons.org/ns#"
   xmlns:rdf="http://www.w3.org/1999/02/22-rdf-syntax-ns#"
   xmlns:svg="http://www.w3.org/2000/svg"
   xmlns="http://www.w3.org/2000/svg"
   xmlns:inkscape="http://www.inkscape.org/namespaces/inkscape"
   version="1.1"
   width="80"
   height="80"
   id="svg2"
   xml:space="preserve"><metadata
     id="metadata8"><rdf:RDF><cc:Work
         rdf:about=""><dc:format>image/svg+xml</dc:format><dc:type
           rdf:resource="http://purl.org/dc/dcmitype/StillImage" /></cc:Work></rdf:RDF></metadata><defs
     id="defs6"><clipPath
       id="clipPath16"><path
         d="M 0,64 64,64 64,0 0,0 0,64 z"
         inkscape:connector-curvature="0"
         id="path18" /></clipPath></defs><g
     transform="matrix(1.25,0,0,-1.25,0,80)"
     id="g10"><g
       id="g12"><g
         clip-path="url(#clipPath16)"
         id="g14"><g
           transform="translate(33.9766,44.0049)"
           id="g20"><path
             d="m 0,0 c 2.734,0.977 4.734,3.5 4.734,6.516 0,3.718 -3.015,6.734 -6.726,6.734 -3.719,0 -6.735,-3.016 -6.735,-6.734 0,-3.047 2.032,-5.586 4.813,-6.516 l 0,1.281 c 0,0.766 0.32,1.172 0.641,1.391 -1.735,0.18 -3.594,0.805 -3.594,3.805 0,0.843 0.297,1.531 0.789,2.062 -0.078,0.203 -0.336,0.984 0.078,2.039 0,0 0.648,0.211 2.117,-0.789 0.61,0.172 1.274,0.258 1.922,0.258 0.656,0 1.313,-0.086 1.93,-0.258 1.468,1 2.109,0.789 2.109,0.789 C 2.5,9.523 2.234,8.742 2.156,8.539 2.648,8.008 2.945,7.32 2.945,6.477 2.945,3.477 1.086,2.852 -0.648,2.672 -0.328,2.453 0,2.047 0,1.281 L 0,0 z m 5.984,6.516 c 0,-4.407 -3.57,-8.016 -7.976,-8.016 -4.414,0 -7.985,3.609 -7.985,8.016 0,4.414 3.571,7.984 7.985,7.984 4.406,0 7.976,-3.57 7.976,-7.984"
             inkscape:connector-curvature="0"
             id="path22"
             style="fill:#373535;fill-opacity:1;fill-rule:nonzero;stroke:none" /></g><g
           transform="translate(36,8.5801)"
           id="g24"><path
             d="m 0,0 c 5.5,1.812 9.484,6.937 9.484,13 0,7.453 -6.046,13.5 -13.5,13.5 -7.437,0 -13.484,-6.047 -13.484,-13.5 0,-6.063 4,-11.203 9.516,-13 l 0,2.547 c -3.938,-0.891 -4.766,1.844 -4.766,1.844 -0.625,1.609 -1.531,2.031 -1.531,2.031 -1.266,0.859 0.093,0.844 0.093,0.844 1.391,-0.094 2.125,-1.422 2.125,-1.422 1.313,-2.25 3.485,-1.438 4.157,-1.11 0.203,0.985 0.969,1.188 1.219,1.266 -3.547,0.375 -7.344,1.656 -7.344,7.797 0,1.719 0.609,3.125 1.609,4.219 -0.156,0.406 -0.703,2 0.156,4.171 0,0 1.328,0.422 4.329,-1.609 1.25,0.344 2.593,0.516 3.937,0.531 1.328,-0.015 2.672,-0.187 3.938,-0.531 3,2.031 4.312,1.609 4.312,1.609 0.859,-2.171 0.328,-3.765 0.156,-4.171 1.016,-1.094 1.625,-2.5 1.625,-4.219 C 6.031,7.656 2.234,6.391 -1.312,6.016 -0.672,5.578 0,4.75 0,3.172 L 0,0 z m 11.984,13 c 0,-8.844 -7.156,-16 -16,-16 C -12.844,-3 -20,4.156 -20,13 c 0,8.828 7.156,16 15.984,16 8.844,0 16,-7.172 16,-16"
             inkscape:connector-curvature="0"
             id="path26"
             style="fill:#373535;fill-opacity:1;fill-rule:nonzero;stroke:none" /></g></g></g></g></svg>